<svg xmlns="http://www.w3.org/2000/svg" fill-rule="evenodd" stroke-linejoin="round" stroke-miterlimit="2" clip-rule="evenodd" viewBox="0 0 32 32" id="robot-search">
  <g transform="translate(-52 -52)">
    <path fill="#fff" d="M72.562 54.975c6.154 3.554 8.265 11.433 4.713 17.588-3.553 6.153-11.434 8.265-17.587 4.711-6.154-3.552-8.265-11.432-4.713-17.586 3.553-6.155 11.434-8.266 17.587-4.713Z"></path>
    <path fill="#121954" d="M77.203 72.961a.998.998 0 0 0-1.514.116 12.072 12.072 0 0 1-2.612 2.612.998.998 0 0 0-.116 1.514l5.918 5.918a2.996 2.996 0 0 0 4.242 0 2.996 2.996 0 0 0 0-4.242l-5.918-5.918Z"></path>
    <path fill="#23aae1" d="M75 63c0-.796-.316-1.559-.879-2.121A2.996 2.996 0 0 0 72 60H60c-.796 0-1.559.316-2.121.879A2.996 2.996 0 0 0 57 63v7c0 .796.316 1.559.879 2.121A2.996 2.996 0 0 0 60 73h12c.796 0 1.559-.316 2.121-.879A2.996 2.996 0 0 0 75 70v-7Z"></path>
    <circle cx="5" cy="6" r="1" fill="#fff" transform="translate(57 59)"></circle>
    <circle cx="5" cy="6" r="1" fill="#fff" transform="translate(65 59)"></circle>
    <path fill="#2c3789" d="M66 52c-7.727 0-14 6.273-14 14 0 7.726 6.273 14 14 14 7.726 0 14-6.274 14-14 0-7.727-6.274-14-14-14Zm0 2c6.623 0 12 5.376 12 12 0 6.623-5.377 12-12 12-6.624 0-12-5.377-12-12 0-6.624 5.376-12 12-12Z"></path>
    <path fill="#fff" d="M63 70h6a1 1 0 0 0 0-2h-6a1 1 0 0 0 0 2Z"></path>
  </g>
</svg>